# xmcd
#
# Track frame offsets: 
#        150
#        20325
#        37125
#        58260
#        74859
#        96125
#        118350
#        134630
#        148314
#
# Disc length: 2470 seconds
#
# Revision: 0
# Processed by: cddbd v1.5.2PL0 Copyright (c) Steve Scherf et al.
# Submitted via: ExactAudioCopy v1.3
#
DISCID=9b09a409
DTITLE=Ferenczi And Rackajam (Jim Oblon, Szalonna) - Áldás, Rockandrol
DTITLE=l
DYEAR=2019
DGENRE=Folk/Rock
TTITLE0=Még azt mondják
TTITLE1=Invertita
TTITLE2=A hajnali csillag
TTITLE3=Nashville blues
TTITLE4=48-as (Eredeti bejelentett címe: Kalocsai katonadalok)
TTITLE5=Jáger Jóska balladája
TTITLE6=Áll a hadihajó
TTITLE7=Járóka
TTITLE8=Hajnali Bossa
EXTD=
EXTT0=
EXTT1=
EXTT2=
EXTT3=
EXTT4=
EXTT5=
EXTT6=
EXTT7=
EXTT8=
PLAYORDER=
